<mxfile host="app.diagrams.net" modified="2024-05-29T12:35:13.112Z" agent="Mozilla/5.0 (Windows NT 10.0; Win64; x64) AppleWebKit/537.36 (KHTML, like Gecko) Chrome/122.0.0.0 YaBrowser/24.4.0.0 Safari/537.36" etag="FovzhJgZnHy-ng25BMIM" version="24.4.9" type="device">
  <diagram name="Страница — 1" id="86ORyGwil4HY_o4E67RK">
    <mxGraphModel dx="2452" dy="1526" grid="1" gridSize="10" guides="1" tooltips="1" connect="1" arrows="1" fold="1" page="1" pageScale="1" pageWidth="827" pageHeight="1169" math="0" shadow="0">
      <root>
        <mxCell id="0" />
        <mxCell id="1" parent="0" />
        <mxCell id="FKm4AmPGpVvtJ0t6_qM--2" style="edgeStyle=orthogonalEdgeStyle;rounded=0;orthogonalLoop=1;jettySize=auto;html=1;entryX=0.5;entryY=0;entryDx=0;entryDy=0;" parent="1" source="L7b3-lE9Arg3B7ZN5DGm-1" target="FKm4AmPGpVvtJ0t6_qM--1" edge="1">
          <mxGeometry relative="1" as="geometry" />
        </mxCell>
        <mxCell id="L7b3-lE9Arg3B7ZN5DGm-1" value="Администратор" style="rounded=0;whiteSpace=wrap;html=1;" parent="1" vertex="1">
          <mxGeometry x="360" y="140" width="120" height="60" as="geometry" />
        </mxCell>
        <mxCell id="FKm4AmPGpVvtJ0t6_qM--4" style="edgeStyle=orthogonalEdgeStyle;rounded=0;orthogonalLoop=1;jettySize=auto;html=1;" parent="1" source="FKm4AmPGpVvtJ0t6_qM--1" target="FKm4AmPGpVvtJ0t6_qM--3" edge="1">
          <mxGeometry relative="1" as="geometry" />
        </mxCell>
        <mxCell id="n5Az5VmaZfHbXw1LK0di-2" value="" style="edgeStyle=orthogonalEdgeStyle;rounded=0;orthogonalLoop=1;jettySize=auto;html=1;" parent="1" source="FKm4AmPGpVvtJ0t6_qM--1" target="n5Az5VmaZfHbXw1LK0di-1" edge="1">
          <mxGeometry relative="1" as="geometry" />
        </mxCell>
        <mxCell id="FKm4AmPGpVvtJ0t6_qM--1" value="Модератор" style="rounded=0;whiteSpace=wrap;html=1;" parent="1" vertex="1">
          <mxGeometry x="360" y="250" width="120" height="60" as="geometry" />
        </mxCell>
        <mxCell id="FKm4AmPGpVvtJ0t6_qM--3" value="Пользователь" style="rounded=0;whiteSpace=wrap;html=1;" parent="1" vertex="1">
          <mxGeometry x="360" y="360" width="120" height="60" as="geometry" />
        </mxCell>
        <mxCell id="n5Az5VmaZfHbXw1LK0di-1" value="Волонтер" style="whiteSpace=wrap;html=1;rounded=0;" parent="1" vertex="1">
          <mxGeometry x="540" y="250" width="120" height="60" as="geometry" />
        </mxCell>
        <mxCell id="RRDqajV0uu0qNDr3UIK5-1" value="Администратор" style="rounded=0;whiteSpace=wrap;html=1;" parent="1" vertex="1">
          <mxGeometry x="-1270" y="-550" width="120" height="60" as="geometry" />
        </mxCell>
        <mxCell id="Fv0QYaZ21boz2VyL1xtO-1" value="Директор" style="rounded=0;whiteSpace=wrap;html=1;" vertex="1" parent="1">
          <mxGeometry x="-1270" y="-660" width="120" height="60" as="geometry" />
        </mxCell>
        <mxCell id="Fv0QYaZ21boz2VyL1xtO-2" value="" style="endArrow=classic;html=1;rounded=0;entryX=0.5;entryY=0;entryDx=0;entryDy=0;" edge="1" parent="1" target="RRDqajV0uu0qNDr3UIK5-1">
          <mxGeometry width="50" height="50" relative="1" as="geometry">
            <mxPoint x="-1210" y="-600" as="sourcePoint" />
            <mxPoint x="-1160" y="-650" as="targetPoint" />
          </mxGeometry>
        </mxCell>
        <mxCell id="Fv0QYaZ21boz2VyL1xtO-3" value="Модератор" style="rounded=0;whiteSpace=wrap;html=1;" vertex="1" parent="1">
          <mxGeometry x="-1270" y="-450" width="120" height="60" as="geometry" />
        </mxCell>
        <mxCell id="Fv0QYaZ21boz2VyL1xtO-4" value="Пользователь" style="rounded=0;whiteSpace=wrap;html=1;" vertex="1" parent="1">
          <mxGeometry x="-1270" y="-340" width="120" height="60" as="geometry" />
        </mxCell>
        <mxCell id="Fv0QYaZ21boz2VyL1xtO-5" value="Волонтер" style="rounded=0;whiteSpace=wrap;html=1;" vertex="1" parent="1">
          <mxGeometry x="-1080" y="-450" width="120" height="60" as="geometry" />
        </mxCell>
        <mxCell id="Fv0QYaZ21boz2VyL1xtO-6" value="" style="endArrow=classic;html=1;rounded=0;" edge="1" parent="1" target="Fv0QYaZ21boz2VyL1xtO-3">
          <mxGeometry width="50" height="50" relative="1" as="geometry">
            <mxPoint x="-1210" y="-490" as="sourcePoint" />
            <mxPoint x="-1160" y="-540" as="targetPoint" />
          </mxGeometry>
        </mxCell>
        <mxCell id="Fv0QYaZ21boz2VyL1xtO-7" value="" style="endArrow=classic;html=1;rounded=0;entryX=0;entryY=0.5;entryDx=0;entryDy=0;" edge="1" parent="1" target="Fv0QYaZ21boz2VyL1xtO-5">
          <mxGeometry width="50" height="50" relative="1" as="geometry">
            <mxPoint x="-1150" y="-420" as="sourcePoint" />
            <mxPoint x="-1100" y="-470" as="targetPoint" />
          </mxGeometry>
        </mxCell>
        <mxCell id="Fv0QYaZ21boz2VyL1xtO-8" value="" style="endArrow=classic;html=1;rounded=0;entryX=0.5;entryY=0;entryDx=0;entryDy=0;" edge="1" parent="1" target="Fv0QYaZ21boz2VyL1xtO-4">
          <mxGeometry width="50" height="50" relative="1" as="geometry">
            <mxPoint x="-1210" y="-390" as="sourcePoint" />
            <mxPoint x="-1160" y="-440" as="targetPoint" />
          </mxGeometry>
        </mxCell>
      </root>
    </mxGraphModel>
  </diagram>
</mxfile>
